<svg width="22" height="18" viewBox="0 0 22 18" fill="none" xmlns="http://www.w3.org/2000/svg">
<path d="M18.6244 2.11756C17.2219 1.48506 15.7185 1.01756 14.1464 0.751728C14.1324 0.74904 14.1179 0.750772 14.105 0.756684C14.092 0.762597 14.0812 0.772397 14.074 0.784728C13.8815 1.12298 13.667 1.56389 13.5167 1.91223C11.8494 1.66311 10.1543 1.66311 8.48694 1.91223C8.3195 1.52618 8.13068 1.14977 7.92136 0.784728C7.91426 0.772245 7.90353 0.762223 7.89059 0.756C7.87765 0.749776 7.86312 0.747646 7.84894 0.749894C6.27777 1.01573 4.77444 1.48323 3.37102 2.11664C3.35895 2.12171 3.34871 2.13034 3.34169 2.14139C0.489024 6.33514 -0.292893 10.4253 0.0911906 14.4641C0.0922593 14.474 0.0953298 14.4836 0.100215 14.4923C0.1051 14.5009 0.111698 14.5085 0.119607 14.5146C1.78463 15.7268 3.64175 16.6502 5.61319 17.2462C5.62693 17.2505 5.64163 17.2504 5.65537 17.2462C5.66911 17.2419 5.68124 17.2336 5.69019 17.2224C6.11369 16.6541 6.49136 16.0536 6.81402 15.423C6.83327 15.3863 6.81494 15.3423 6.77644 15.3276C6.18428 15.1046 5.61052 14.8355 5.06044 14.5228C5.05056 14.5172 5.04223 14.5092 5.0362 14.4995C5.03017 14.4899 5.02664 14.4789 5.02591 14.4675C5.02519 14.4561 5.02729 14.4448 5.03204 14.4344C5.03678 14.4241 5.04402 14.4151 5.05311 14.4082C5.16861 14.323 5.28411 14.2341 5.39411 14.1451C5.40401 14.1371 5.41594 14.1321 5.42856 14.1304C5.44118 14.1288 5.45401 14.1307 5.46561 14.136C9.06536 15.753 12.9639 15.753 16.5215 14.136C16.5332 14.1304 16.5461 14.1283 16.5589 14.1297C16.5717 14.1312 16.5839 14.1362 16.5939 14.1442C16.7039 14.2341 16.8185 14.323 16.9349 14.4082C16.9441 14.4149 16.9515 14.4238 16.9564 14.4341C16.9613 14.4443 16.9635 14.4556 16.963 14.467C16.9625 14.4783 16.9591 14.4894 16.9532 14.4991C16.9474 14.5089 16.9392 14.517 16.9294 14.5228C16.3813 14.8381 15.8111 15.1049 15.2125 15.3267C15.2033 15.3301 15.195 15.3353 15.188 15.3422C15.181 15.349 15.1755 15.3572 15.1719 15.3663C15.1684 15.3755 15.1668 15.3852 15.1673 15.395C15.1678 15.4047 15.1704 15.4143 15.1749 15.423C15.5049 16.0527 15.8826 16.6522 16.2979 17.2215C16.3065 17.2332 16.3185 17.2419 16.3323 17.2465C16.3461 17.2511 16.3609 17.2513 16.3749 17.2471C18.3497 16.6528 20.2098 15.7289 21.8767 14.5146C21.8848 14.5089 21.8916 14.5015 21.8967 14.493C21.9018 14.4844 21.9049 14.4749 21.906 14.4651C22.3644 9.79556 21.1379 5.73839 18.6528 2.14323C18.6467 2.13154 18.6366 2.12244 18.6244 2.11756ZM7.35211 12.0047C6.26861 12.0047 5.37486 11.0248 5.37486 9.82306C5.37486 8.62039 6.25119 7.64139 7.35211 7.64139C8.46127 7.64139 9.34677 8.62864 9.32936 9.82306C9.32936 11.0257 8.45302 12.0047 7.35211 12.0047ZM14.6625 12.0047C13.5781 12.0047 12.6853 11.0248 12.6853 9.82306C12.6853 8.62039 13.5607 7.64139 14.6625 7.64139C15.7717 7.64139 16.6572 8.62864 16.6398 9.82306C16.6398 11.0257 15.7726 12.0047 14.6625 12.0047Z" fill="black"/>
</svg>
