<svg width="32" height="32" viewBox="0 0 32 32" fill="none" xmlns="http://www.w3.org/2000/svg">
<g clip-path="url(#clip0_3_30)">
<path d="M15.9957 10.6644C13.0578 10.6644 10.6602 13.062 10.6602 16C10.6602 18.938 13.0578 21.3356 15.9957 21.3356C18.9336 21.3356 21.3312 18.938 21.3312 16C21.3312 13.062 18.9336 10.6644 15.9957 10.6644ZM31.9982 16C31.9982 13.7905 32.0182 11.601 31.8942 9.39554C31.77 6.8338 31.1856 4.56028 29.3124 2.687C27.4352 0.809736 25.1658 0.229344 22.604 0.105261C20.3946 -0.018823 18.2051 0.00119058 15.9997 0.00119058C13.7902 0.00119058 11.6008 -0.018823 9.39536 0.105261C6.83368 0.229344 4.56018 0.81374 2.68696 2.687C0.809722 4.56428 0.22934 6.8338 0.105259 9.39554C-0.0188227 11.605 0.00119056 13.7945 0.00119056 16C0.00119056 18.2055 -0.0188227 20.399 0.105259 22.6044C0.22934 25.1662 0.813724 27.4398 2.68696 29.313C4.56418 31.1902 6.83368 31.7706 9.39536 31.8948C11.6048 32.0188 13.7943 31.9988 15.9997 31.9988C18.2092 31.9988 20.3986 32.0188 22.604 31.8948C25.1658 31.7706 27.4392 31.1862 29.3124 29.313C31.1896 27.4358 31.77 25.1662 31.8942 22.6044C32.0222 20.399 31.9982 18.2095 31.9982 16ZM15.9957 24.2096C11.4527 24.2096 7.7863 20.543 7.7863 16C7.7863 11.4569 11.4527 7.79046 15.9957 7.79046C20.5386 7.79046 24.205 11.4569 24.205 16C24.205 20.543 20.5386 24.2096 15.9957 24.2096ZM24.5414 9.37152C23.4806 9.37152 22.624 8.51494 22.624 7.45422C22.624 6.3935 23.4806 5.53694 24.5414 5.53694C25.602 5.53694 26.4586 6.3935 26.4586 7.45422C26.4588 7.7061 26.4096 7.95556 26.3132 8.18832C26.217 8.42108 26.0758 8.63256 25.8978 8.81066C25.7196 8.98876 25.5082 9.12998 25.2754 9.22622C25.0426 9.32246 24.7932 9.37184 24.5414 9.37152Z" fill="#050012"/>
</g>
<defs>
<clipPath id="clip0_3_30">
<rect width="32" height="32" fill="white"/>
</clipPath>
</defs>
</svg>
