<svg width="70" height="70" viewBox="0 0 70 70" fill="none" xmlns="http://www.w3.org/2000/svg">
<path d="M26.165 14.2247C19.025 22.2398 14.125 33.7548 13.67 34.8398L1 29.4148L15.175 15.2397C16.82 13.5947 19.2 12.8597 21.51 13.3147L26.165 14.2247ZM33.095 51.4998C33.095 51.4998 46.185 46.0748 53.71 38.5498C72.61 19.6497 69.46 4.8797 68.445 1.5547C65.12 0.504705 50.35 -2.6103 31.45 16.2897C23.925 23.8148 18.5 36.9048 18.5 36.9048L33.095 51.4998ZM55.775 43.8348C47.76 50.9748 36.245 55.8746 35.16 56.3298L40.585 68.9998L54.76 54.8248C56.405 53.1798 57.14 50.7998 56.685 48.4898L55.775 43.8348ZM25.5 54.9998C25.5 57.9048 24.31 60.5298 22.42 62.4198C18.29 66.5498 1 68.9998 1 68.9998C1 68.9998 3.45 51.7098 7.58 47.5798C9.04578 46.1062 10.9164 45.1016 12.9542 44.6934C14.9921 44.2852 17.1053 44.4916 19.0256 45.2868C20.9458 46.0818 22.5866 47.4296 23.7392 49.159C24.892 50.8884 25.5048 52.9214 25.5 54.9998ZM39.5 23.4998C39.5 19.6497 42.65 16.4997 46.5 16.4997C50.35 16.4997 53.5 19.6497 53.5 23.4998C53.5 27.3498 50.35 30.4998 46.5 30.4998C42.65 30.4998 39.5 27.3498 39.5 23.4998Z" fill="#040224"/>
</svg>
