<svg width="36" height="30" viewBox="0 0 36 30" fill="none" xmlns="http://www.w3.org/2000/svg">
<path d="M35.1838 4.15928C33.9314 4.71428 32.5858 5.08928 31.1714 5.25878C32.6308 4.38546 33.7228 3.01098 34.2434 1.39178C32.8722 2.20626 31.3714 2.77958 29.8064 3.08678C28.754 1.96308 27.36 1.21827 25.8408 0.967989C24.3218 0.717711 22.7624 0.975965 21.4052 1.70266C20.048 2.42934 18.9685 3.58382 18.3346 4.98684C17.7007 6.38984 17.5477 7.9629 17.8994 9.46178C15.1209 9.32228 12.4028 8.6001 9.92151 7.34214C7.44021 6.08416 5.25113 4.31852 3.49637 2.15978C2.89637 3.19478 2.55137 4.39478 2.55137 5.67278C2.55071 6.82328 2.83403 7.95614 3.37619 8.97088C3.91837 9.98562 4.70261 10.8508 5.65937 11.4898C4.54979 11.4545 3.46469 11.1547 2.49437 10.6153V10.7053C2.49427 12.3189 3.05243 13.8828 4.07415 15.1318C5.09587 16.3807 6.51823 17.2377 8.09987 17.5573C7.07055 17.8359 5.99139 17.8769 4.94387 17.6773C5.39013 19.0657 6.25937 20.2798 7.42993 21.1496C8.60049 22.0196 10.0137 22.5016 11.4719 22.5282C8.99663 24.4714 5.93971 25.5254 2.79287 25.5208C2.23545 25.521 1.67849 25.4884 1.12488 25.4232C4.31909 27.477 8.03739 28.567 11.8349 28.5628C24.6898 28.5628 31.7174 17.9158 31.7174 8.68178C31.7174 8.38178 31.7098 8.07878 31.6964 7.77878C33.0632 6.79024 34.2432 5.56612 35.1808 4.16378L35.1838 4.15928Z" fill="#050012"/>
</svg>
