<svg width="18" height="15" viewBox="0 0 18 15" fill="none" xmlns="http://www.w3.org/2000/svg">
<path d="M17.5919 2.07964C16.9657 2.35714 16.2929 2.54464 15.5857 2.62939C16.3154 2.19273 16.8614 1.50549 17.1217 0.695889C16.4361 1.10313 15.6857 1.38979 14.9032 1.54339C14.377 0.981538 13.68 0.609133 12.9204 0.483994C12.1609 0.358855 11.3812 0.487982 10.7026 0.851328C10.024 1.21467 9.48425 1.79191 9.16729 2.49342C8.85032 3.19492 8.77382 3.98145 8.94967 4.73089C7.56044 4.66114 6.20139 4.30005 4.96074 3.67107C3.72009 3.04208 2.62555 2.15926 1.74817 1.07989C1.44817 1.59739 1.27567 2.19739 1.27567 2.83639C1.27534 3.41164 1.417 3.97807 1.68808 4.48544C1.95917 4.99281 2.35129 5.42542 2.82967 5.74489C2.27488 5.72724 1.73233 5.57733 1.24717 5.30764V5.35264C1.24712 6.15944 1.5262 6.94142 2.03706 7.56589C2.54792 8.19035 3.2591 8.61884 4.04992 8.77864C3.53526 8.91793 2.99568 8.93844 2.47192 8.83864C2.69505 9.53285 3.12967 10.1399 3.71495 10.5748C4.30023 11.0098 5.00686 11.2508 5.73592 11.2641C4.4983 12.2357 2.96984 12.7627 1.39642 12.7604C1.11771 12.7605 0.839231 12.7442 0.562424 12.7116C2.15953 13.7385 4.01868 14.2835 5.91742 14.2814C12.3449 14.2814 15.8587 8.95789 15.8587 4.34089C15.8587 4.19089 15.8549 4.03939 15.8482 3.88939C16.5316 3.39512 17.1216 2.78306 17.5904 2.08189L17.5919 2.07964Z" fill="#050012"/>
</svg>
