<svg width="44" height="36" viewBox="0 0 44 36" fill="none" xmlns="http://www.w3.org/2000/svg">
<g clip-path="url(#clip0_3_41)">
<path d="M37.2488 4.23512C34.4438 2.97012 31.437 2.03512 28.2928 1.50346C28.2648 1.49808 28.2358 1.50154 28.21 1.51337C28.184 1.52519 28.1624 1.54479 28.148 1.56946C27.763 2.24596 27.334 3.12778 27.0334 3.82446C23.6988 3.32622 20.3086 3.32622 16.9739 3.82446C16.639 3.05236 16.2614 2.29954 15.8427 1.56946C15.8285 1.54449 15.8071 1.52445 15.7812 1.512C15.7553 1.49955 15.7262 1.49529 15.6979 1.49979C12.5555 2.03146 9.54888 2.96646 6.74204 4.23328C6.7179 4.24342 6.69742 4.26068 6.68338 4.28278C0.978048 12.6703 -0.585786 20.8506 0.182381 28.9282C0.184519 28.948 0.19066 28.9672 0.20043 28.9846C0.2102 29.0018 0.223396 29.017 0.239214 29.0292C3.56926 31.4536 7.2835 33.3004 11.2264 34.4924C11.2539 34.501 11.2833 34.5008 11.3107 34.4924C11.3382 34.4838 11.3625 34.4672 11.3804 34.4448C12.2274 33.3082 12.9827 32.1072 13.628 30.846C13.6665 30.7726 13.6299 30.6846 13.5529 30.6552C12.3686 30.2092 11.221 29.671 10.1209 29.0456C10.1011 29.0344 10.0845 29.0184 10.0724 28.999C10.0603 28.9798 10.0533 28.9578 10.0518 28.935C10.0504 28.9122 10.0546 28.8896 10.0641 28.8688C10.0736 28.8482 10.088 28.8302 10.1062 28.8164C10.3372 28.646 10.5682 28.4682 10.7882 28.2902C10.808 28.2742 10.8319 28.2642 10.8571 28.2608C10.8824 28.2576 10.908 28.2614 10.9312 28.272C18.1307 31.506 25.9278 31.506 33.043 28.272C33.0664 28.2608 33.0922 28.2566 33.1178 28.2594C33.1434 28.2624 33.1678 28.2724 33.1878 28.2884C33.4078 28.4682 33.637 28.646 33.8698 28.8164C33.8882 28.8298 33.903 28.8476 33.9128 28.8682C33.9226 28.8886 33.927 28.9112 33.926 28.934C33.925 28.9566 33.9182 28.9788 33.9064 28.9982C33.8948 29.0178 33.8784 29.034 33.8588 29.0456C32.7626 29.6762 31.6222 30.2098 30.425 30.6534C30.4066 30.6602 30.39 30.6706 30.376 30.6844C30.362 30.698 30.351 30.7144 30.3438 30.7326C30.3368 30.751 30.3336 30.7704 30.3346 30.79C30.3356 30.8094 30.3408 30.8286 30.3498 30.846C31.0098 32.1054 31.7652 33.3044 32.5958 34.443C32.613 34.4664 32.637 34.4838 32.6646 34.493C32.6922 34.5022 32.7218 34.5026 32.7498 34.4942C36.6994 33.3056 40.4196 31.4578 43.7534 29.0292C43.7696 29.0178 43.7832 29.003 43.7934 28.986C43.8036 28.9688 43.8098 28.9498 43.812 28.9302C44.7288 19.5911 42.2758 11.4768 37.3056 4.28646C37.2934 4.26308 37.2732 4.24488 37.2488 4.23512ZM14.7042 24.0094C12.5372 24.0094 10.7497 22.0496 10.7497 19.6461C10.7497 17.2408 12.5024 15.2828 14.7042 15.2828C16.9225 15.2828 18.6935 17.2573 18.6587 19.6461C18.6587 22.0514 16.906 24.0094 14.7042 24.0094ZM29.325 24.0094C27.1562 24.0094 25.3706 22.0496 25.3706 19.6461C25.3706 17.2408 27.1214 15.2828 29.325 15.2828C31.5434 15.2828 33.3144 17.2573 33.2796 19.6461C33.2796 22.0514 31.5452 24.0094 29.325 24.0094Z" fill="black"/>
</g>
<defs>
<clipPath id="clip0_3_41">
<rect width="44" height="36" fill="white"/>
</clipPath>
</defs>
</svg>
