<svg width="20" height="20" viewBox="0 0 20 20" fill="none" xmlns="http://www.w3.org/2000/svg">
<path d="M9.99738 6.73979C8.20198 6.73979 6.73679 8.205 6.73679 10.0004C6.73679 11.7959 8.20198 13.2611 9.99738 13.2611C11.7928 13.2611 13.258 11.7959 13.258 10.0004C13.258 8.205 11.7928 6.73979 9.99738 6.73979ZM19.7767 10.0004C19.7767 8.65019 19.7889 7.31217 19.7131 5.96437C19.6373 4.39887 19.2801 3.00949 18.1354 1.86471C16.9882 0.717495 15.6013 0.362811 14.0358 0.286982C12.6856 0.211153 11.3476 0.223384 9.99982 0.223384C8.6496 0.223384 7.31161 0.211153 5.96384 0.286982C4.39837 0.362811 3.00901 0.719941 1.86426 1.86471C0.717059 3.01193 0.362381 4.39887 0.286554 5.96437C0.210726 7.31462 0.222957 8.65263 0.222957 10.0004C0.222957 11.3482 0.210726 12.6887 0.286554 14.0365C0.362381 15.602 0.719505 16.9914 1.86426 18.1362C3.01146 19.2834 4.39837 19.6381 5.96384 19.7139C7.31406 19.7897 8.65205 19.7775 9.99982 19.7775C11.35 19.7775 12.688 19.7897 14.0358 19.7139C15.6013 19.6381 16.9906 19.2809 18.1354 18.1362C19.2826 16.9889 19.6373 15.602 19.7131 14.0365C19.7914 12.6887 19.7767 11.3507 19.7767 10.0004ZM9.99738 15.0174C7.22111 15.0174 4.98053 12.7768 4.98053 10.0004C4.98053 7.22411 7.22111 4.98349 9.99738 4.98349C12.7736 4.98349 15.0142 7.22411 15.0142 10.0004C15.0142 12.7768 12.7736 15.0174 9.99738 15.0174ZM15.2197 5.9497C14.5715 5.9497 14.048 5.42623 14.048 4.77802C14.048 4.1298 14.5715 3.60634 15.2197 3.60634C15.8679 3.60634 16.3914 4.1298 16.3914 4.77802C16.3916 4.93194 16.3614 5.08439 16.3026 5.22663C16.2437 5.36887 16.1575 5.49811 16.0486 5.60695C15.9398 5.71579 15.8105 5.80209 15.6683 5.8609C15.5261 5.91972 15.3736 5.94989 15.2197 5.9497Z" fill="#050012"/>
</svg>
