<svg width="40" height="40" viewBox="0 0 40 40" fill="none" xmlns="http://www.w3.org/2000/svg">
<path d="M19.9948 13.4796C16.404 13.4796 13.4736 16.41 13.4736 20.0008C13.4736 23.5918 16.404 26.5222 19.9948 26.5222C23.5856 26.5222 26.516 23.5918 26.516 20.0008C26.516 16.41 23.5856 13.4796 19.9948 13.4796ZM39.5534 20.0008C39.5534 17.3004 39.5778 14.6243 39.4262 11.9287C39.2746 8.79774 38.5602 6.01898 36.2708 3.72942C33.9764 1.43499 31.2026 0.725622 28.0716 0.573964C25.3712 0.422306 22.6952 0.446768 19.9996 0.446768C17.2992 0.446768 14.6232 0.422306 11.9277 0.573964C8.79674 0.725622 6.01802 1.43988 3.72852 3.72942C1.43412 6.02386 0.724761 8.79774 0.573107 11.9287C0.421451 14.6292 0.445913 17.3053 0.445913 20.0008C0.445913 22.6964 0.421451 25.3774 0.573107 28.073C0.724761 31.204 1.43901 33.9828 3.72852 36.2724C6.02292 38.5668 8.79674 39.2762 11.9277 39.4278C14.6281 39.5794 17.3041 39.555 19.9996 39.555C22.7 39.555 25.376 39.5794 28.0716 39.4278C31.2026 39.2762 33.9812 38.5618 36.2708 36.2724C38.5652 33.9778 39.2746 31.204 39.4262 28.073C39.5828 25.3774 39.5534 22.7014 39.5534 20.0008ZM19.9948 30.0348C14.4422 30.0348 9.96106 25.5536 9.96106 20.0008C9.96106 14.4482 14.4422 9.96698 19.9948 9.96698C25.5472 9.96698 30.0284 14.4482 30.0284 20.0008C30.0284 25.5536 25.5472 30.0348 19.9948 30.0348ZM30.4394 11.8994C29.143 11.8994 28.096 10.8525 28.096 9.55604C28.096 8.2596 29.143 7.21268 30.4394 7.21268C31.7358 7.21268 32.7828 8.2596 32.7828 9.55604C32.7832 9.86388 32.7228 10.1688 32.6052 10.4533C32.4874 10.7377 32.315 10.9962 32.0972 11.2139C31.8796 11.4316 31.621 11.6042 31.3366 11.7218C31.0522 11.8394 30.7472 11.8998 30.4394 11.8994Z" fill="#050012"/>
</svg>
