<svg width="44" height="36" viewBox="0 0 44 36" fill="none" xmlns="http://www.w3.org/2000/svg">
<path d="M43.0026 5.9731C41.4718 6.65144 39.8274 7.10976 38.0984 7.31694C39.8824 6.24956 41.2168 4.56962 41.8532 2.5906C40.1772 3.58608 38.343 4.2868 36.4302 4.66226C35.1438 3.28886 33.4402 2.37854 31.5834 2.07264C29.7268 1.76674 27.821 2.08238 26.162 2.97056C24.5032 3.85874 23.184 5.26976 22.4092 6.98456C21.6344 8.69936 21.4474 10.622 21.8772 12.4539C18.4813 12.2834 15.1591 11.4008 12.1264 9.86326C9.09374 8.32574 6.4182 6.16774 4.2735 3.52926C3.54016 4.79426 3.1185 6.26094 3.1185 7.82294C3.11768 9.2291 3.46396 10.6137 4.12662 11.8539C4.78926 13.0942 5.7478 14.1517 6.91716 14.9326C5.561 14.8895 4.23476 14.523 3.04884 13.8638V13.9738C3.0487 15.946 3.7309 17.8575 4.97966 19.3839C6.22844 20.9104 7.96688 21.9578 9.9 22.3484C8.64194 22.689 7.32296 22.739 6.04266 22.4952C6.58808 24.192 7.6505 25.676 9.08118 26.7392C10.5119 27.8022 12.2392 28.3914 14.0213 28.4242C10.996 30.799 7.2598 32.0872 3.41366 32.0816C2.73236 32.0818 2.05164 32.042 1.375 31.9624C5.27904 34.4726 9.82362 35.8048 14.465 35.7996C30.1766 35.7996 38.7658 22.7866 38.7658 11.5006C38.7658 11.1339 38.7566 10.7636 38.7402 10.3969C40.4108 9.18872 41.853 7.69258 42.999 5.9786L43.0026 5.9731Z" fill="#050012"/>
</svg>
