<svg width="22" height="18" viewBox="0 0 22 18" fill="none" xmlns="http://www.w3.org/2000/svg">
<path d="M21.5013 2.98655C20.7359 3.32572 19.9137 3.55488 19.0492 3.65847C19.9412 3.12478 20.6084 2.28481 20.9266 1.2953C20.0886 1.79304 19.1715 2.1434 18.2151 2.33113C17.5719 1.64443 16.7201 1.18927 15.7917 1.03632C14.8634 0.883371 13.9105 1.04119 13.081 1.48528C12.2516 1.92937 11.592 2.63488 11.2046 3.49228C10.8172 4.34968 10.7237 5.31099 10.9386 6.22697C9.24063 6.14171 7.57957 5.70039 6.06322 4.93163C4.54687 4.16287 3.2091 3.08387 2.13675 1.76463C1.77008 2.39713 1.55925 3.13047 1.55925 3.91147C1.55884 4.61455 1.73198 5.30686 2.06331 5.92697C2.39463 6.54709 2.8739 7.07584 3.45858 7.4663C2.7805 7.44473 2.11738 7.2615 1.52442 6.93188V6.98688C1.52435 7.97298 1.86545 8.92873 2.48983 9.69196C3.11422 10.4552 3.98344 10.9789 4.95 11.1742C4.32097 11.3445 3.66148 11.3695 3.02133 11.2476C3.29404 12.096 3.82525 12.838 4.54059 13.3696C5.25593 13.9011 6.11959 14.1957 7.01067 14.2121C5.49801 15.3995 3.6299 16.0436 1.70683 16.0408C1.36618 16.0409 1.02582 16.021 0.6875 15.9812C2.63952 17.2363 4.91181 17.9024 7.2325 17.8998C15.0883 17.8998 19.3829 11.3933 19.3829 5.7503C19.3829 5.56697 19.3783 5.3818 19.3701 5.19847C20.2054 4.59436 20.9265 3.84629 21.4995 2.9893L21.5013 2.98655Z" fill="#050012"/>
</svg>
