<svg width="35" height="35" viewBox="0 0 35 35" fill="none" xmlns="http://www.w3.org/2000/svg">
<path d="M13.0825 7.11235C9.5125 11.1199 7.0625 16.8774 6.835 17.4199L0.5 14.7074L7.5875 7.61985C8.41 6.79735 9.6 6.42985 10.755 6.65735L13.0825 7.11235ZM16.5475 25.7499C16.5475 25.7499 23.0925 23.0374 26.855 19.2749C36.305 9.82485 34.73 2.43985 34.2225 0.777352C32.56 0.252352 25.175 -1.30515 15.725 8.14485C11.9625 11.9074 9.25 18.4524 9.25 18.4524L16.5475 25.7499ZM27.8875 21.9174C23.88 25.4874 18.1225 27.9373 17.58 28.1649L20.2925 34.4999L27.38 27.4124C28.2025 26.5899 28.57 25.3999 28.3425 24.2449L27.8875 21.9174ZM12.75 27.4999C12.75 28.9524 12.155 30.2649 11.21 31.2099C9.145 33.2749 0.5 34.4999 0.5 34.4999C0.5 34.4999 1.725 25.8549 3.79 23.7899C4.52289 23.0531 5.45819 22.5508 6.47712 22.3467C7.49606 22.1426 8.55267 22.2458 9.5128 22.6434C10.4729 23.0409 11.2933 23.7148 11.8696 24.5795C12.446 25.4442 12.7524 26.4607 12.75 27.4999ZM19.75 11.7499C19.75 9.82485 21.325 8.24985 23.25 8.24985C25.175 8.24985 26.75 9.82485 26.75 11.7499C26.75 13.6749 25.175 15.2499 23.25 15.2499C21.325 15.2499 19.75 13.6749 19.75 11.7499Z" fill="#040224"/>
</svg>
